<?xml version="1.0" encoding="UTF-8" standalone="no"?>
<svg xmlns="http://www.w3.org/2000/svg" xmlns:xlink="http://www.w3.org/1999/xlink" xmlns:serif="http://www.serif.com/" width="100%" height="100%" viewBox="0 0 510 50" version="1.1" xml:space="preserve" style="fill-rule:evenodd;clip-rule:evenodd;stroke-linejoin:round;stroke-miterlimit:2;">
  <g>
    <path d="M42.661,29.301l-20.4,-0l1.337,-7.672l20.4,0l-1.337,7.672Zm-28.653,16.796l-9.008,0l7.439,-42.252l36.441,-0l-1.569,9.066l-27.432,0l-5.871,33.186Z" style="fill:#fff;fill-rule:nonzero;"></path>
    <path d="M76.08,46.097l-10.462,0c-5.23,0 -9.454,-1.705 -12.67,-5.114c-3.177,-3.41 -4.765,-7.73 -4.765,-12.961c-0,-6.974 2.421,-12.747 7.265,-17.319c4.843,-4.572 10.713,-6.858 17.61,-6.858l10.461,-0c5.425,-0 9.745,1.588 12.961,4.765c3.216,3.139 4.824,7.285 4.824,12.438c-0,6.897 -2.48,12.806 -7.44,17.726c-4.959,4.882 -10.887,7.323 -17.784,7.323Zm-8.834,-9.066l10.461,-0c3.991,-0 7.362,-1.356 10.113,-4.069c2.79,-2.712 4.185,-6.044 4.185,-9.996c-0,-2.984 -0.911,-5.405 -2.732,-7.265c-1.821,-1.86 -4.262,-2.79 -7.323,-2.79l-10.462,0c-3.874,0 -7.206,1.356 -9.996,4.069c-2.79,2.712 -4.185,6.044 -4.185,9.996c0,2.984 0.911,5.405 2.732,7.265c1.821,1.86 4.223,2.79 7.207,2.79Z" style="fill:#fff;fill-rule:nonzero;"></path>
    <path d="M153.088,46.097l-12.844,0l-8.253,-11.507l-13.135,-0l1.336,-7.73l16.39,-0c2.596,-0 4.63,-0.775 6.103,-2.325c1.472,-1.55 2.208,-3.603 2.208,-6.161c0,-1.782 -0.504,-3.138 -1.511,-4.068c-1.007,-0.93 -2.441,-1.395 -4.301,-1.395l-21.678,0l-5.87,33.186l-9.009,0l7.439,-42.252l30.687,-0c4.262,-0 7.536,1.143 9.823,3.429c2.324,2.247 3.487,5.347 3.487,9.299c-0,4.068 -1.008,7.575 -3.023,10.519c-2.014,2.906 -4.765,4.999 -8.252,6.277l10.403,12.728Z" style="fill:#fff;fill-rule:nonzero;"></path>
    <path d="M181.218,46.097l-24.875,0l7.439,-42.252l24.875,-0c5.347,-0 9.628,1.588 12.844,4.765c3.216,3.178 4.824,7.343 4.824,12.496c0,6.897 -2.48,12.786 -7.439,17.668c-4.921,4.882 -10.81,7.323 -17.668,7.323Zm-14.24,-9.066l15.867,-0c3.875,-0 7.207,-1.356 9.996,-4.069c2.79,-2.712 4.185,-6.025 4.185,-9.938c0,-2.984 -0.91,-5.405 -2.732,-7.265c-1.821,-1.899 -4.223,-2.848 -7.206,-2.848l-15.867,0l-4.243,24.12Z" style="fill:#fff;fill-rule:nonzero;"></path>
    <path d="M247.474,28.197l-22.434,-0l1.278,-7.149l22.434,-0l-1.278,7.149Zm-1.453,17.9l-38.417,0l7.439,-42.252l38.359,-0l-1.569,9.066l-29.351,0l-4.242,24.12l29.408,-0l-1.627,9.066Z" style="fill:#fff;fill-rule:nonzero;"></path>
    <path d="M288.157,46.097l-36.383,0l7.44,-42.252l9.066,-0l-5.812,33.186l27.316,-0l-1.627,9.066Z" style="fill:#fff;fill-rule:nonzero;"></path>
    <path d="M304.837,43.773l-16.971,-39.928l11.043,-0l12.38,30.163l22.898,-30.163l10.404,-0l-31.036,39.928c-1.511,1.937 -3.138,2.905 -4.882,2.905c-1.743,0 -3.022,-0.968 -3.836,-2.905Z" style="fill:#fff;fill-rule:nonzero;"></path>
    <path d="M350.577,46.097l-9.066,0l7.439,-42.252l9.066,-0l-7.439,42.252Z" style="fill:#fff;fill-rule:nonzero;"></path>
    <path d="M382.601,46.097l-24.875,0l7.439,-42.252l24.875,-0c5.347,-0 9.629,1.588 12.844,4.765c3.216,3.178 4.824,7.343 4.824,12.496c0,6.897 -2.479,12.786 -7.439,17.668c-4.921,4.882 -10.81,7.323 -17.668,7.323Zm-14.239,-9.066l15.866,-0c3.875,-0 7.207,-1.356 9.997,-4.069c2.789,-2.712 4.184,-6.025 4.184,-9.938c0,-2.984 -0.91,-5.405 -2.731,-7.265c-1.821,-1.899 -4.224,-2.848 -7.207,-2.848l-15.867,0l-4.242,24.12Z" style="fill:#fff;fill-rule:nonzero;"></path>
    <path d="M448.857,28.197l-22.434,-0l1.278,-7.149l22.434,-0l-1.278,7.149Zm-1.453,17.9l-38.417,0l7.439,-42.252l38.359,-0l-1.569,9.066l-29.35,0l-4.243,24.12l29.408,-0l-1.627,9.066Z" style="fill:#fff;fill-rule:nonzero;"></path>
    <path d="M489.482,44.935l-22.841,-27.781l-5.056,28.943l-8.602,0l6.626,-37.429c0.271,-1.666 0.891,-2.964 1.86,-3.894c1.007,-0.968 2.208,-1.452 3.603,-1.452c1.317,-0 2.441,0.561 3.371,1.685l22.666,27.374l5.231,-28.943l8.66,-0l-6.626,37.835c-0.271,1.666 -0.93,2.984 -1.976,3.953c-1.007,0.968 -2.189,1.452 -3.545,1.452c-1.317,0 -2.441,-0.581 -3.371,-1.743Z" style="fill:#fff;fill-rule:nonzero;"></path>
  </g>
</svg>
